<?xml version="1.0" encoding="UTF-8" standalone="no"?>
<!DOCTYPE svg PUBLIC "-//W3C//DTD SVG 1.1//EN"
 "http://www.w3.org/Graphics/SVG/1.1/DTD/svg11.dtd">
<!-- Generated by graphviz version 2.43.0 (0)
 -->
<!-- Title: %3 Pages: 1 -->
<svg width="659pt" height="167pt"
 viewBox="0.00 0.00 659.06 166.95" xmlns="http://www.w3.org/2000/svg" xmlns:xlink="http://www.w3.org/1999/xlink">
<g id="graph0" class="graph" transform="scale(1 1) rotate(0) translate(4 162.95)">
<title>%3</title>
<polygon fill="white" stroke="transparent" points="-4,4 -4,-162.95 655.06,-162.95 655.06,4 -4,4"/>
<!-- 04482ece86acfa0d0aa32ae0d08fec0e3781b029 -->
<g id="node1" class="node">
<title>04482ece86acfa0d0aa32ae0d08fec0e3781b029</title>
<ellipse fill="#fbb4ae" stroke="#fbb4ae" cx="199.34" cy="-89.87" rx="54.39" ry="26.74"/>
<text text-anchor="middle" x="199.34" y="-93.67" font-family="Times,serif" font-size="14.00">0.1.1</text>
<text text-anchor="middle" x="199.34" y="-78.67" font-family="Times,serif" font-size="14.00">04482ec</text>
</g>
<!-- bd4ca1323f9c160687c6447cd2ed491a29d0e56f -->
<g id="node2" class="node">
<title>bd4ca1323f9c160687c6447cd2ed491a29d0e56f</title>
<ellipse fill="#fbb4ae" stroke="#fbb4ae" cx="54.45" cy="-57.87" rx="54.39" ry="26.74"/>
<text text-anchor="middle" x="54.45" y="-61.67" font-family="Times,serif" font-size="14.00">0.1.0</text>
<text text-anchor="middle" x="54.45" y="-46.67" font-family="Times,serif" font-size="14.00">bd4ca13</text>
</g>
<!-- 04482ece86acfa0d0aa32ae0d08fec0e3781b029&#45;&gt;bd4ca1323f9c160687c6447cd2ed491a29d0e56f -->
<g id="edge6" class="edge">
<title>04482ece86acfa0d0aa32ae0d08fec0e3781b029&#45;&gt;bd4ca1323f9c160687c6447cd2ed491a29d0e56f</title>
<path fill="none" stroke="black" d="M149.57,-78.95C138.31,-76.43 126.22,-73.72 114.57,-71.11"/>
<polygon fill="black" stroke="black" points="115.01,-67.62 104.49,-68.85 113.48,-74.45 115.01,-67.62"/>
</g>
<!-- 7a8d0086431c788f05ae67215f1ea78efe8d0ef5 -->
<g id="node3" class="node">
<title>7a8d0086431c788f05ae67215f1ea78efe8d0ef5</title>
<ellipse fill="#b3cde3" stroke="#b3cde3" cx="560.55" cy="-26.87" rx="90.52" ry="26.74"/>
<text text-anchor="middle" x="560.55" y="-30.67" font-family="Times,serif" font-size="14.00">another&#45;feature</text>
<text text-anchor="middle" x="560.55" y="-15.67" font-family="Times,serif" font-size="14.00">7a8d008</text>
</g>
<!-- d1f8477dc9fddeb3394ed284a3cbac6fd8609027 -->
<g id="node5" class="node">
<title>d1f8477dc9fddeb3394ed284a3cbac6fd8609027</title>
<ellipse fill="none" stroke="black" cx="361.91" cy="-26.87" rx="49.29" ry="18"/>
<text text-anchor="middle" x="361.91" y="-23.17" font-family="Times,serif" font-size="14.00">d1f8477</text>
</g>
<!-- 7a8d0086431c788f05ae67215f1ea78efe8d0ef5&#45;&gt;d1f8477dc9fddeb3394ed284a3cbac6fd8609027 -->
<g id="edge2" class="edge">
<title>7a8d0086431c788f05ae67215f1ea78efe8d0ef5&#45;&gt;d1f8477dc9fddeb3394ed284a3cbac6fd8609027</title>
<path fill="none" stroke="black" d="M469.86,-26.87C453.49,-26.87 436.79,-26.87 421.6,-26.87"/>
<polygon fill="black" stroke="black" points="421.35,-23.37 411.35,-26.87 421.35,-30.37 421.35,-23.37"/>
</g>
<!-- bcc3a2603a9a525ebbbdbe3651f7df90f8a29854 -->
<g id="node4" class="node">
<title>bcc3a2603a9a525ebbbdbe3651f7df90f8a29854</title>
<ellipse fill="#ccebc5" stroke="#ccebc5" cx="361.91" cy="-110.87" rx="72.25" ry="48.17"/>
<text text-anchor="middle" x="361.91" y="-129.67" font-family="Times,serif" font-size="14.00">0.1.2</text>
<text text-anchor="middle" x="361.91" y="-114.67" font-family="Times,serif" font-size="14.00">main</text>
<text text-anchor="middle" x="361.91" y="-99.67" font-family="Times,serif" font-size="14.00">new&#45;feature</text>
<text text-anchor="middle" x="361.91" y="-84.67" font-family="Times,serif" font-size="14.00">bcc3a26</text>
</g>
<!-- bcc3a2603a9a525ebbbdbe3651f7df90f8a29854&#45;&gt;04482ece86acfa0d0aa32ae0d08fec0e3781b029 -->
<g id="edge1" class="edge">
<title>bcc3a2603a9a525ebbbdbe3651f7df90f8a29854&#45;&gt;04482ece86acfa0d0aa32ae0d08fec0e3781b029</title>
<path fill="none" stroke="black" d="M290.95,-101.72C281.39,-100.47 271.64,-99.19 262.24,-97.96"/>
<polygon fill="black" stroke="black" points="262.57,-94.48 252.2,-96.65 261.66,-101.42 262.57,-94.48"/>
</g>
<!-- d1f8477dc9fddeb3394ed284a3cbac6fd8609027&#45;&gt;04482ece86acfa0d0aa32ae0d08fec0e3781b029 -->
<g id="edge4" class="edge">
<title>d1f8477dc9fddeb3394ed284a3cbac6fd8609027&#45;&gt;04482ece86acfa0d0aa32ae0d08fec0e3781b029</title>
<path fill="none" stroke="black" d="M326.85,-39.64C315.09,-44.1 301.84,-49.16 289.79,-53.87 277.37,-58.73 264.01,-64.05 251.5,-69.08"/>
<polygon fill="black" stroke="black" points="250.11,-65.87 242.14,-72.85 252.72,-72.36 250.11,-65.87"/>
</g>
<!-- 06481fdf21eda4d40715d5ae8279b811979cf101 -->
<g id="node6" class="node">
<title>06481fdf21eda4d40715d5ae8279b811979cf101</title>
<ellipse fill="none" stroke="black" cx="199.34" cy="-26.87" rx="49.29" ry="18"/>
<text text-anchor="middle" x="199.34" y="-23.17" font-family="Times,serif" font-size="14.00">06481fd</text>
</g>
<!-- d1f8477dc9fddeb3394ed284a3cbac6fd8609027&#45;&gt;06481fdf21eda4d40715d5ae8279b811979cf101 -->
<g id="edge3" class="edge">
<title>d1f8477dc9fddeb3394ed284a3cbac6fd8609027&#45;&gt;06481fdf21eda4d40715d5ae8279b811979cf101</title>
<path fill="none" stroke="black" d="M312.3,-26.87C295.48,-26.87 276.45,-26.87 258.91,-26.87"/>
<polygon fill="black" stroke="black" points="258.79,-23.37 248.79,-26.87 258.79,-30.37 258.79,-23.37"/>
</g>
<!-- 06481fdf21eda4d40715d5ae8279b811979cf101&#45;&gt;bd4ca1323f9c160687c6447cd2ed491a29d0e56f -->
<g id="edge5" class="edge">
<title>06481fdf21eda4d40715d5ae8279b811979cf101&#45;&gt;bd4ca1323f9c160687c6447cd2ed491a29d0e56f</title>
<path fill="none" stroke="black" d="M156.63,-35.92C143.5,-38.77 128.75,-41.97 114.65,-45.03"/>
<polygon fill="black" stroke="black" points="113.56,-41.68 104.53,-47.22 115.05,-48.52 113.56,-41.68"/>
</g>
</g>
</svg>
