<?xml version="1.0" encoding="UTF-8" standalone="no"?>
<!DOCTYPE svg PUBLIC "-//W3C//DTD SVG 1.1//EN"
 "http://www.w3.org/Graphics/SVG/1.1/DTD/svg11.dtd">
<!-- Generated by graphviz version 2.43.0 (0)
 -->
<!-- Title: %3 Pages: 1 -->
<svg width="384pt" height="136pt"
 viewBox="0.00 0.00 384.17 136.48" xmlns="http://www.w3.org/2000/svg" xmlns:xlink="http://www.w3.org/1999/xlink">
<g id="graph0" class="graph" transform="scale(1 1) rotate(0) translate(4 132.48)">
<title>%3</title>
<polygon fill="white" stroke="transparent" points="-4,4 -4,-132.48 380.17,-132.48 380.17,4 -4,4"/>
<!-- 7a8d0086431c788f05ae67215f1ea78efe8d0ef5 -->
<g id="node1" class="node">
<title>7a8d0086431c788f05ae67215f1ea78efe8d0ef5</title>
<ellipse fill="#b3cde3" stroke="#b3cde3" cx="292.98" cy="-110.48" rx="83.39" ry="18"/>
<text text-anchor="middle" x="292.98" y="-106.78" font-family="Times,serif" font-size="14.00">another&#45;feature</text>
</g>
<!-- bd4ca1323f9c160687c6447cd2ed491a29d0e56f -->
<g id="node3" class="node">
<title>bd4ca1323f9c160687c6447cd2ed491a29d0e56f</title>
<ellipse fill="#fbb4ae" stroke="#fbb4ae" cx="34.45" cy="-87.48" rx="34.39" ry="18"/>
<text text-anchor="middle" x="34.45" y="-83.78" font-family="Times,serif" font-size="14.00">0.1.0</text>
</g>
<!-- 7a8d0086431c788f05ae67215f1ea78efe8d0ef5&#45;&gt;bd4ca1323f9c160687c6447cd2ed491a29d0e56f -->
<g id="edge2" class="edge">
<title>7a8d0086431c788f05ae67215f1ea78efe8d0ef5&#45;&gt;bd4ca1323f9c160687c6447cd2ed491a29d0e56f</title>
<path fill="none" stroke="black" d="M215.71,-103.64C170.89,-99.62 115.87,-94.69 78.49,-91.34"/>
<polygon fill="black" stroke="black" points="78.71,-87.84 68.44,-90.43 78.09,-94.81 78.71,-87.84"/>
</g>
<!-- 04482ece86acfa0d0aa32ae0d08fec0e3781b029 -->
<g id="node4" class="node">
<title>04482ece86acfa0d0aa32ae0d08fec0e3781b029</title>
<ellipse fill="#fbb4ae" stroke="#fbb4ae" cx="139.34" cy="-64.48" rx="34.39" ry="18"/>
<text text-anchor="middle" x="139.34" y="-60.78" font-family="Times,serif" font-size="14.00">0.1.1</text>
</g>
<!-- 7a8d0086431c788f05ae67215f1ea78efe8d0ef5&#45;&gt;04482ece86acfa0d0aa32ae0d08fec0e3781b029 -->
<g id="edge1" class="edge">
<title>7a8d0086431c788f05ae67215f1ea78efe8d0ef5&#45;&gt;04482ece86acfa0d0aa32ae0d08fec0e3781b029</title>
<path fill="none" stroke="black" d="M244,-95.92C223.07,-89.57 198.85,-82.23 179.09,-76.23"/>
<polygon fill="black" stroke="black" points="180.07,-72.87 169.49,-73.32 178.04,-79.57 180.07,-72.87"/>
</g>
<!-- bcc3a2603a9a525ebbbdbe3651f7df90f8a29854 -->
<g id="node2" class="node">
<title>bcc3a2603a9a525ebbbdbe3651f7df90f8a29854</title>
<ellipse fill="#ccebc5" stroke="#ccebc5" cx="292.98" cy="-37.48" rx="72.25" ry="37.45"/>
<text text-anchor="middle" x="292.98" y="-48.78" font-family="Times,serif" font-size="14.00">0.1.2</text>
<text text-anchor="middle" x="292.98" y="-33.78" font-family="Times,serif" font-size="14.00">main</text>
<text text-anchor="middle" x="292.98" y="-18.78" font-family="Times,serif" font-size="14.00">new&#45;feature</text>
</g>
<!-- bcc3a2603a9a525ebbbdbe3651f7df90f8a29854&#45;&gt;04482ece86acfa0d0aa32ae0d08fec0e3781b029 -->
<g id="edge3" class="edge">
<title>bcc3a2603a9a525ebbbdbe3651f7df90f8a29854&#45;&gt;04482ece86acfa0d0aa32ae0d08fec0e3781b029</title>
<path fill="none" stroke="black" d="M224.59,-49.48C210.23,-52.03 195.47,-54.66 182.39,-56.99"/>
<polygon fill="black" stroke="black" points="181.53,-53.59 172.3,-58.79 182.76,-60.48 181.53,-53.59"/>
</g>
<!-- 04482ece86acfa0d0aa32ae0d08fec0e3781b029&#45;&gt;bd4ca1323f9c160687c6447cd2ed491a29d0e56f -->
<g id="edge4" class="edge">
<title>04482ece86acfa0d0aa32ae0d08fec0e3781b029&#45;&gt;bd4ca1323f9c160687c6447cd2ed491a29d0e56f</title>
<path fill="none" stroke="black" d="M107.47,-71.38C97.6,-73.58 86.52,-76.06 76.07,-78.4"/>
<polygon fill="black" stroke="black" points="75.29,-74.98 66.3,-80.58 76.82,-81.81 75.29,-74.98"/>
</g>
</g>
</svg>
