<?xml version="1.0" encoding="UTF-8" standalone="no"?>
<!DOCTYPE svg PUBLIC "-//W3C//DTD SVG 1.1//EN" "http://www.w3.org/Graphics/SVG/1.1/DTD/svg11.dtd">
<!-- Generated by graphviz version 2.44.1 (20200629.0846)
 -->
<!-- Pages: 1 -->
<svg width="342pt" height="2747pt" viewBox="0.00 0.00 342.40 2746.95" xmlns="http://www.w3.org/2000/svg" xmlns:xlink="http://www.w3.org/1999/xlink">
<g id="graph0" class="graph" transform="scale(1 1) rotate(0) translate(4 2742.95)">
<polygon fill="white" stroke="transparent" points="-4,4 -4,-2742.95 338.4,-2742.95 338.4,4 -4,4"/>
<!-- 3478b2317b46fb59711db265a1610e69fecdcbb4 -->
<g id="node1" class="node">
<title>3478b2317b46fb59711db265a1610e69fecdcbb4</title>
<ellipse fill="#b3cde3" stroke="#b3cde3" cx="253.89" cy="-2701.48" rx="63.78" ry="37.45"/>
<text text-anchor="middle" x="253.89" y="-2712.78" font-family="Times,serif" font-size="14.00">master</text>
<text text-anchor="middle" x="253.89" y="-2697.78" font-family="Times,serif" font-size="14.00">origin/HEAD</text>
<text text-anchor="middle" x="253.89" y="-2682.78" font-family="Times,serif" font-size="14.00">origin/master</text>
</g>
<!-- 1ae4e88fa2ddfefc4a13dec5bd1e0a25d3802805 -->
<g id="node5" class="node">
<title>1ae4e88fa2ddfefc4a13dec5bd1e0a25d3802805</title>
<ellipse fill="none" stroke="black" cx="253.89" cy="-2610" rx="40.09" ry="18"/>
<text text-anchor="middle" x="253.89" y="-2606.3" font-family="Times,serif" font-size="14.00">1ae4e88</text>
</g>
<!-- 3478b2317b46fb59711db265a1610e69fecdcbb4&#45;&gt;1ae4e88fa2ddfefc4a13dec5bd1e0a25d3802805 -->
<g id="edge1" class="edge">
<title>3478b2317b46fb59711db265a1610e69fecdcbb4-&gt;1ae4e88fa2ddfefc4a13dec5bd1e0a25d3802805</title>
<path fill="none" stroke="black" d="M253.89,-2663.82C253.89,-2655.33 253.89,-2646.43 253.89,-2638.42"/>
<polygon fill="black" stroke="black" points="257.39,-2638.15 253.89,-2628.15 250.39,-2638.15 257.39,-2638.15"/>
</g>
<!-- c509669a01b156900eed9f1c9f927b6d2f7bb95b -->
<g id="node2" class="node">
<title>c509669a01b156900eed9f1c9f927b6d2f7bb95b</title>
<ellipse fill="#b3cde3" stroke="#b3cde3" cx="159.89" cy="-2178" rx="159.77" ry="18"/>
<text text-anchor="middle" x="159.89" y="-2174.3" font-family="Times,serif" font-size="14.00">origin/pyup-scheduled-update-2020-11-16</text>
</g>
<!-- 54ec96e143b5449feb9494723de9068b958ecc20 -->
<g id="node10" class="node">
<title>54ec96e143b5449feb9494723de9068b958ecc20</title>
<ellipse fill="none" stroke="black" cx="253.89" cy="-2106" rx="40.09" ry="18"/>
<text text-anchor="middle" x="253.89" y="-2102.3" font-family="Times,serif" font-size="14.00">54ec96e</text>
</g>
<!-- c509669a01b156900eed9f1c9f927b6d2f7bb95b&#45;&gt;54ec96e143b5449feb9494723de9068b958ecc20 -->
<g id="edge2" class="edge">
<title>c509669a01b156900eed9f1c9f927b6d2f7bb95b-&gt;54ec96e143b5449feb9494723de9068b958ecc20</title>
<path fill="none" stroke="black" d="M182.64,-2160.05C195.6,-2150.4 211.94,-2138.23 225.71,-2127.98"/>
<polygon fill="black" stroke="black" points="227.96,-2130.67 233.89,-2121.89 223.78,-2125.05 227.96,-2130.67"/>
</g>
<!-- 8ab5d38cdce186e8f58b6b38d4095c600f80d58c -->
<g id="node3" class="node">
<title>8ab5d38cdce186e8f58b6b38d4095c600f80d58c</title>
<ellipse fill="#b3cde3" stroke="#b3cde3" cx="159.89" cy="-2466" rx="159.77" ry="18"/>
<text text-anchor="middle" x="159.89" y="-2462.3" font-family="Times,serif" font-size="14.00">origin/pyup-scheduled-update-2020-12-21</text>
</g>
<!-- e5f99ad54235b848a0195509971bd8e1e1ba0320 -->
<g id="node7" class="node">
<title>e5f99ad54235b848a0195509971bd8e1e1ba0320</title>
<ellipse fill="none" stroke="black" cx="253.89" cy="-2394" rx="38.99" ry="18"/>
<text text-anchor="middle" x="253.89" y="-2390.3" font-family="Times,serif" font-size="14.00">e5f99ad</text>
</g>
<!-- 8ab5d38cdce186e8f58b6b38d4095c600f80d58c&#45;&gt;e5f99ad54235b848a0195509971bd8e1e1ba0320 -->
<g id="edge3" class="edge">
<title>8ab5d38cdce186e8f58b6b38d4095c600f80d58c-&gt;e5f99ad54235b848a0195509971bd8e1e1ba0320</title>
<path fill="none" stroke="black" d="M182.64,-2448.05C195.69,-2438.34 212.17,-2426.06 226,-2415.77"/>
<polygon fill="black" stroke="black" points="228.28,-2418.44 234.21,-2409.66 224.09,-2412.82 228.28,-2418.44"/>
</g>
<!-- a72d09b847d37208ca295c152cdf640ef2488500 -->
<g id="node4" class="node">
<title>a72d09b847d37208ca295c152cdf640ef2488500</title>
<ellipse fill="none" stroke="black" cx="226.89" cy="-18" rx="40.89" ry="18"/>
<text text-anchor="middle" x="226.89" y="-14.3" font-family="Times,serif" font-size="14.00">a72d09b</text>
</g>
<!-- bdf9aae92d29efa5fd76b9c8e29d4944ef650c01 -->
<g id="node6" class="node">
<title>bdf9aae92d29efa5fd76b9c8e29d4944ef650c01</title>
<ellipse fill="none" stroke="black" cx="253.89" cy="-2538" rx="38.19" ry="18"/>
<text text-anchor="middle" x="253.89" y="-2534.3" font-family="Times,serif" font-size="14.00">bdf9aae</text>
</g>
<!-- 1ae4e88fa2ddfefc4a13dec5bd1e0a25d3802805&#45;&gt;bdf9aae92d29efa5fd76b9c8e29d4944ef650c01 -->
<g id="edge4" class="edge">
<title>1ae4e88fa2ddfefc4a13dec5bd1e0a25d3802805-&gt;bdf9aae92d29efa5fd76b9c8e29d4944ef650c01</title>
<path fill="none" stroke="black" d="M253.89,-2591.7C253.89,-2583.98 253.89,-2574.71 253.89,-2566.11"/>
<polygon fill="black" stroke="black" points="257.39,-2566.1 253.89,-2556.1 250.39,-2566.1 257.39,-2566.1"/>
</g>
<!-- bdf9aae92d29efa5fd76b9c8e29d4944ef650c01&#45;&gt;8ab5d38cdce186e8f58b6b38d4095c600f80d58c -->
<g id="edge5" class="edge">
<title>bdf9aae92d29efa5fd76b9c8e29d4944ef650c01-&gt;8ab5d38cdce186e8f58b6b38d4095c600f80d58c</title>
<path fill="none" stroke="black" d="M233.95,-2522.15C221.43,-2512.83 205.01,-2500.61 190.82,-2490.04"/>
<polygon fill="black" stroke="black" points="192.88,-2487.21 182.77,-2484.04 188.7,-2492.82 192.88,-2487.21"/>
</g>
<!-- bdf9aae92d29efa5fd76b9c8e29d4944ef650c01&#45;&gt;e5f99ad54235b848a0195509971bd8e1e1ba0320 -->
<g id="edge6" class="edge">
<title>bdf9aae92d29efa5fd76b9c8e29d4944ef650c01-&gt;e5f99ad54235b848a0195509971bd8e1e1ba0320</title>
<path fill="none" stroke="black" d="M281.68,-2525.48C298.67,-2516.81 318.99,-2503.11 328.89,-2484 336.24,-2469.79 336.24,-2462.21 328.89,-2448 320.75,-2432.29 305.58,-2420.24 290.99,-2411.63"/>
<polygon fill="black" stroke="black" points="292.51,-2408.47 282.06,-2406.71 289.13,-2414.6 292.51,-2408.47"/>
</g>
<!-- 0d0dbc9145771ad4a54f04c9b1aa547382a01014 -->
<g id="node8" class="node">
<title>0d0dbc9145771ad4a54f04c9b1aa547382a01014</title>
<ellipse fill="none" stroke="black" cx="253.89" cy="-2322" rx="40.89" ry="18"/>
<text text-anchor="middle" x="253.89" y="-2318.3" font-family="Times,serif" font-size="14.00">0d0dbc9</text>
</g>
<!-- e5f99ad54235b848a0195509971bd8e1e1ba0320&#45;&gt;0d0dbc9145771ad4a54f04c9b1aa547382a01014 -->
<g id="edge7" class="edge">
<title>e5f99ad54235b848a0195509971bd8e1e1ba0320-&gt;0d0dbc9145771ad4a54f04c9b1aa547382a01014</title>
<path fill="none" stroke="black" d="M253.89,-2375.7C253.89,-2367.98 253.89,-2358.71 253.89,-2350.11"/>
<polygon fill="black" stroke="black" points="257.39,-2350.1 253.89,-2340.1 250.39,-2350.1 257.39,-2350.1"/>
</g>
<!-- c25bcdca47319b3bee499be915716e6a5d95292f -->
<g id="node9" class="node">
<title>c25bcdca47319b3bee499be915716e6a5d95292f</title>
<ellipse fill="none" stroke="black" cx="253.89" cy="-2250" rx="40.09" ry="18"/>
<text text-anchor="middle" x="253.89" y="-2246.3" font-family="Times,serif" font-size="14.00">c25bcdc</text>
</g>
<!-- 0d0dbc9145771ad4a54f04c9b1aa547382a01014&#45;&gt;c25bcdca47319b3bee499be915716e6a5d95292f -->
<g id="edge8" class="edge">
<title>0d0dbc9145771ad4a54f04c9b1aa547382a01014-&gt;c25bcdca47319b3bee499be915716e6a5d95292f</title>
<path fill="none" stroke="black" d="M253.89,-2303.7C253.89,-2295.98 253.89,-2286.71 253.89,-2278.11"/>
<polygon fill="black" stroke="black" points="257.39,-2278.1 253.89,-2268.1 250.39,-2278.1 257.39,-2278.1"/>
</g>
<!-- c25bcdca47319b3bee499be915716e6a5d95292f&#45;&gt;c509669a01b156900eed9f1c9f927b6d2f7bb95b -->
<g id="edge10" class="edge">
<title>c25bcdca47319b3bee499be915716e6a5d95292f-&gt;c509669a01b156900eed9f1c9f927b6d2f7bb95b</title>
<path fill="none" stroke="black" d="M233.95,-2234.15C221.43,-2224.83 205.01,-2212.61 190.82,-2202.04"/>
<polygon fill="black" stroke="black" points="192.88,-2199.21 182.77,-2196.04 188.7,-2204.82 192.88,-2199.21"/>
</g>
<!-- c25bcdca47319b3bee499be915716e6a5d95292f&#45;&gt;54ec96e143b5449feb9494723de9068b958ecc20 -->
<g id="edge9" class="edge">
<title>c25bcdca47319b3bee499be915716e6a5d95292f-&gt;54ec96e143b5449feb9494723de9068b958ecc20</title>
<path fill="none" stroke="black" d="M282.44,-2237.09C299.27,-2228.4 319.13,-2214.83 328.89,-2196 336.24,-2181.79 336.24,-2174.21 328.89,-2160 320.81,-2144.41 305.8,-2132.42 291.32,-2123.82"/>
<polygon fill="black" stroke="black" points="292.88,-2120.69 282.44,-2118.91 289.49,-2126.81 292.88,-2120.69"/>
</g>
<!-- 7051321d23ab0d93e0107225f44821692a90f05a -->
<g id="node11" class="node">
<title>7051321d23ab0d93e0107225f44821692a90f05a</title>
<ellipse fill="none" stroke="black" cx="253.89" cy="-2034" rx="41.69" ry="18"/>
<text text-anchor="middle" x="253.89" y="-2030.3" font-family="Times,serif" font-size="14.00">7051321</text>
</g>
<!-- 54ec96e143b5449feb9494723de9068b958ecc20&#45;&gt;7051321d23ab0d93e0107225f44821692a90f05a -->
<g id="edge11" class="edge">
<title>54ec96e143b5449feb9494723de9068b958ecc20-&gt;7051321d23ab0d93e0107225f44821692a90f05a</title>
<path fill="none" stroke="black" d="M253.89,-2087.7C253.89,-2079.98 253.89,-2070.71 253.89,-2062.11"/>
<polygon fill="black" stroke="black" points="257.39,-2062.1 253.89,-2052.1 250.39,-2062.1 257.39,-2062.1"/>
</g>
<!-- 1fa710ee5231c15e946a673bc486c3cdfc43a5db -->
<g id="node12" class="node">
<title>1fa710ee5231c15e946a673bc486c3cdfc43a5db</title>
<ellipse fill="none" stroke="black" cx="253.89" cy="-1962" rx="38.99" ry="18"/>
<text text-anchor="middle" x="253.89" y="-1958.3" font-family="Times,serif" font-size="14.00">1fa710e</text>
</g>
<!-- 7051321d23ab0d93e0107225f44821692a90f05a&#45;&gt;1fa710ee5231c15e946a673bc486c3cdfc43a5db -->
<g id="edge12" class="edge">
<title>7051321d23ab0d93e0107225f44821692a90f05a-&gt;1fa710ee5231c15e946a673bc486c3cdfc43a5db</title>
<path fill="none" stroke="black" d="M253.89,-2015.7C253.89,-2007.98 253.89,-1998.71 253.89,-1990.11"/>
<polygon fill="black" stroke="black" points="257.39,-1990.1 253.89,-1980.1 250.39,-1990.1 257.39,-1990.1"/>
</g>
<!-- bb149dc96c0afe1f3568540466ce70994a19391b -->
<g id="node13" class="node">
<title>bb149dc96c0afe1f3568540466ce70994a19391b</title>
<ellipse fill="none" stroke="black" cx="253.89" cy="-1890" rx="40.89" ry="18"/>
<text text-anchor="middle" x="253.89" y="-1886.3" font-family="Times,serif" font-size="14.00">bb149dc</text>
</g>
<!-- 1fa710ee5231c15e946a673bc486c3cdfc43a5db&#45;&gt;bb149dc96c0afe1f3568540466ce70994a19391b -->
<g id="edge13" class="edge">
<title>1fa710ee5231c15e946a673bc486c3cdfc43a5db-&gt;bb149dc96c0afe1f3568540466ce70994a19391b</title>
<path fill="none" stroke="black" d="M253.89,-1943.7C253.89,-1935.98 253.89,-1926.71 253.89,-1918.11"/>
<polygon fill="black" stroke="black" points="257.39,-1918.1 253.89,-1908.1 250.39,-1918.1 257.39,-1918.1"/>
</g>
<!-- 5fa3768ba50c2b7a94de23b866f7e03f3f618b62 -->
<g id="node14" class="node">
<title>5fa3768ba50c2b7a94de23b866f7e03f3f618b62</title>
<ellipse fill="none" stroke="black" cx="253.89" cy="-1818" rx="39.79" ry="18"/>
<text text-anchor="middle" x="253.89" y="-1814.3" font-family="Times,serif" font-size="14.00">5fa3768</text>
</g>
<!-- bb149dc96c0afe1f3568540466ce70994a19391b&#45;&gt;5fa3768ba50c2b7a94de23b866f7e03f3f618b62 -->
<g id="edge14" class="edge">
<title>bb149dc96c0afe1f3568540466ce70994a19391b-&gt;5fa3768ba50c2b7a94de23b866f7e03f3f618b62</title>
<path fill="none" stroke="black" d="M253.89,-1871.7C253.89,-1863.98 253.89,-1854.71 253.89,-1846.11"/>
<polygon fill="black" stroke="black" points="257.39,-1846.1 253.89,-1836.1 250.39,-1846.1 257.39,-1846.1"/>
</g>
<!-- 77e4e35f110e643605a8cfa8a4105771fc351452 -->
<g id="node15" class="node">
<title>77e4e35f110e643605a8cfa8a4105771fc351452</title>
<ellipse fill="none" stroke="black" cx="219.89" cy="-1746" rx="40.09" ry="18"/>
<text text-anchor="middle" x="219.89" y="-1742.3" font-family="Times,serif" font-size="14.00">77e4e35</text>
</g>
<!-- 5fa3768ba50c2b7a94de23b866f7e03f3f618b62&#45;&gt;77e4e35f110e643605a8cfa8a4105771fc351452 -->
<g id="edge16" class="edge">
<title>5fa3768ba50c2b7a94de23b866f7e03f3f618b62-&gt;77e4e35f110e643605a8cfa8a4105771fc351452</title>
<path fill="none" stroke="black" d="M245.66,-1800.05C241.69,-1791.89 236.84,-1781.91 232.43,-1772.82"/>
<polygon fill="black" stroke="black" points="235.56,-1771.25 228.04,-1763.79 229.26,-1774.31 235.56,-1771.25"/>
</g>
<!-- 9d78f2af956955ada62c9779aea8cada0427e269 -->
<g id="node16" class="node">
<title>9d78f2af956955ada62c9779aea8cada0427e269</title>
<ellipse fill="none" stroke="black" cx="253.89" cy="-1674" rx="39.79" ry="18"/>
<text text-anchor="middle" x="253.89" y="-1670.3" font-family="Times,serif" font-size="14.00">9d78f2a</text>
</g>
<!-- 5fa3768ba50c2b7a94de23b866f7e03f3f618b62&#45;&gt;9d78f2af956955ada62c9779aea8cada0427e269 -->
<g id="edge15" class="edge">
<title>5fa3768ba50c2b7a94de23b866f7e03f3f618b62-&gt;9d78f2af956955ada62c9779aea8cada0427e269</title>
<path fill="none" stroke="black" d="M259.97,-1800.07C263.34,-1789.79 267.18,-1776.31 268.89,-1764 271.09,-1748.15 271.09,-1743.85 268.89,-1728 267.67,-1719.25 265.38,-1709.9 262.94,-1701.54"/>
<polygon fill="black" stroke="black" points="266.27,-1700.45 259.97,-1691.93 259.58,-1702.52 266.27,-1700.45"/>
</g>
<!-- 77e4e35f110e643605a8cfa8a4105771fc351452&#45;&gt;9d78f2af956955ada62c9779aea8cada0427e269 -->
<g id="edge17" class="edge">
<title>77e4e35f110e643605a8cfa8a4105771fc351452-&gt;9d78f2af956955ada62c9779aea8cada0427e269</title>
<path fill="none" stroke="black" d="M228.12,-1728.05C232.08,-1719.89 236.93,-1709.91 241.34,-1700.82"/>
<polygon fill="black" stroke="black" points="244.51,-1702.31 245.73,-1691.79 238.21,-1699.25 244.51,-1702.31"/>
</g>
<!-- 8b92419d8e7f104517c95efcd820c49234dd895e -->
<g id="node17" class="node">
<title>8b92419d8e7f104517c95efcd820c49234dd895e</title>
<ellipse fill="none" stroke="black" cx="253.89" cy="-1602" rx="41.69" ry="18"/>
<text text-anchor="middle" x="253.89" y="-1598.3" font-family="Times,serif" font-size="14.00">8b92419</text>
</g>
<!-- 9d78f2af956955ada62c9779aea8cada0427e269&#45;&gt;8b92419d8e7f104517c95efcd820c49234dd895e -->
<g id="edge18" class="edge">
<title>9d78f2af956955ada62c9779aea8cada0427e269-&gt;8b92419d8e7f104517c95efcd820c49234dd895e</title>
<path fill="none" stroke="black" d="M253.89,-1655.7C253.89,-1647.98 253.89,-1638.71 253.89,-1630.11"/>
<polygon fill="black" stroke="black" points="257.39,-1630.1 253.89,-1620.1 250.39,-1630.1 257.39,-1630.1"/>
</g>
<!-- 12fd8188bda480ce8add51df7432ed9f4b60b629 -->
<g id="node18" class="node">
<title>12fd8188bda480ce8add51df7432ed9f4b60b629</title>
<ellipse fill="none" stroke="black" cx="219.89" cy="-1530" rx="40.09" ry="18"/>
<text text-anchor="middle" x="219.89" y="-1526.3" font-family="Times,serif" font-size="14.00">12fd818</text>
</g>
<!-- 8b92419d8e7f104517c95efcd820c49234dd895e&#45;&gt;12fd8188bda480ce8add51df7432ed9f4b60b629 -->
<g id="edge20" class="edge">
<title>8b92419d8e7f104517c95efcd820c49234dd895e-&gt;12fd8188bda480ce8add51df7432ed9f4b60b629</title>
<path fill="none" stroke="black" d="M245.66,-1584.05C241.69,-1575.89 236.84,-1565.91 232.43,-1556.82"/>
<polygon fill="black" stroke="black" points="235.56,-1555.25 228.04,-1547.79 229.26,-1558.31 235.56,-1555.25"/>
</g>
<!-- 16381ad08cfc9157dc352ba11f4a3bfc190a4fb4 -->
<g id="node20" class="node">
<title>16381ad08cfc9157dc352ba11f4a3bfc190a4fb4</title>
<ellipse fill="none" stroke="black" cx="253.89" cy="-1386" rx="40.89" ry="18"/>
<text text-anchor="middle" x="253.89" y="-1382.3" font-family="Times,serif" font-size="14.00">16381ad</text>
</g>
<!-- 8b92419d8e7f104517c95efcd820c49234dd895e&#45;&gt;16381ad08cfc9157dc352ba11f4a3bfc190a4fb4 -->
<g id="edge19" class="edge">
<title>8b92419d8e7f104517c95efcd820c49234dd895e-&gt;16381ad08cfc9157dc352ba11f4a3bfc190a4fb4</title>
<path fill="none" stroke="black" d="M259.97,-1584.07C263.34,-1573.79 267.18,-1560.31 268.89,-1548 275.48,-1500.46 275.48,-1487.54 268.89,-1440 267.67,-1431.25 265.38,-1421.9 262.94,-1413.54"/>
<polygon fill="black" stroke="black" points="266.27,-1412.45 259.97,-1403.93 259.58,-1414.52 266.27,-1412.45"/>
</g>
<!-- a88425e3c19ef440ff6c0eebe13f41531ef3ebf6 -->
<g id="node19" class="node">
<title>a88425e3c19ef440ff6c0eebe13f41531ef3ebf6</title>
<ellipse fill="none" stroke="black" cx="219.89" cy="-1458" rx="40.09" ry="18"/>
<text text-anchor="middle" x="219.89" y="-1454.3" font-family="Times,serif" font-size="14.00">a88425e</text>
</g>
<!-- 12fd8188bda480ce8add51df7432ed9f4b60b629&#45;&gt;a88425e3c19ef440ff6c0eebe13f41531ef3ebf6 -->
<g id="edge21" class="edge">
<title>12fd8188bda480ce8add51df7432ed9f4b60b629-&gt;a88425e3c19ef440ff6c0eebe13f41531ef3ebf6</title>
<path fill="none" stroke="black" d="M219.89,-1511.7C219.89,-1503.98 219.89,-1494.71 219.89,-1486.11"/>
<polygon fill="black" stroke="black" points="223.39,-1486.1 219.89,-1476.1 216.39,-1486.1 223.39,-1486.1"/>
</g>
<!-- a88425e3c19ef440ff6c0eebe13f41531ef3ebf6&#45;&gt;16381ad08cfc9157dc352ba11f4a3bfc190a4fb4 -->
<g id="edge22" class="edge">
<title>a88425e3c19ef440ff6c0eebe13f41531ef3ebf6-&gt;16381ad08cfc9157dc352ba11f4a3bfc190a4fb4</title>
<path fill="none" stroke="black" d="M228.12,-1440.05C232.08,-1431.89 236.93,-1421.91 241.34,-1412.82"/>
<polygon fill="black" stroke="black" points="244.51,-1414.31 245.73,-1403.79 238.21,-1411.25 244.51,-1414.31"/>
</g>
<!-- 2eaa69aef86bf66b7dda5c2a98050a553b996392 -->
<g id="node21" class="node">
<title>2eaa69aef86bf66b7dda5c2a98050a553b996392</title>
<ellipse fill="none" stroke="black" cx="253.89" cy="-1314" rx="39.79" ry="18"/>
<text text-anchor="middle" x="253.89" y="-1310.3" font-family="Times,serif" font-size="14.00">2eaa69a</text>
</g>
<!-- 16381ad08cfc9157dc352ba11f4a3bfc190a4fb4&#45;&gt;2eaa69aef86bf66b7dda5c2a98050a553b996392 -->
<g id="edge23" class="edge">
<title>16381ad08cfc9157dc352ba11f4a3bfc190a4fb4-&gt;2eaa69aef86bf66b7dda5c2a98050a553b996392</title>
<path fill="none" stroke="black" d="M253.89,-1367.7C253.89,-1359.98 253.89,-1350.71 253.89,-1342.11"/>
<polygon fill="black" stroke="black" points="257.39,-1342.1 253.89,-1332.1 250.39,-1342.1 257.39,-1342.1"/>
</g>
<!-- e14ec459f31cd30164afab22efd606f5ecd69443 -->
<g id="node22" class="node">
<title>e14ec459f31cd30164afab22efd606f5ecd69443</title>
<ellipse fill="none" stroke="black" cx="253.89" cy="-1242" rx="40.09" ry="18"/>
<text text-anchor="middle" x="253.89" y="-1238.3" font-family="Times,serif" font-size="14.00">e14ec45</text>
</g>
<!-- 2eaa69aef86bf66b7dda5c2a98050a553b996392&#45;&gt;e14ec459f31cd30164afab22efd606f5ecd69443 -->
<g id="edge24" class="edge">
<title>2eaa69aef86bf66b7dda5c2a98050a553b996392-&gt;e14ec459f31cd30164afab22efd606f5ecd69443</title>
<path fill="none" stroke="black" d="M253.89,-1295.7C253.89,-1287.98 253.89,-1278.71 253.89,-1270.11"/>
<polygon fill="black" stroke="black" points="257.39,-1270.1 253.89,-1260.1 250.39,-1270.1 257.39,-1270.1"/>
</g>
<!-- af75f08161c4b7f63829c3fdcd86ed15181299a8 -->
<g id="node23" class="node">
<title>af75f08161c4b7f63829c3fdcd86ed15181299a8</title>
<ellipse fill="none" stroke="black" cx="253.89" cy="-1170" rx="38.19" ry="18"/>
<text text-anchor="middle" x="253.89" y="-1166.3" font-family="Times,serif" font-size="14.00">af75f08</text>
</g>
<!-- e14ec459f31cd30164afab22efd606f5ecd69443&#45;&gt;af75f08161c4b7f63829c3fdcd86ed15181299a8 -->
<g id="edge25" class="edge">
<title>e14ec459f31cd30164afab22efd606f5ecd69443-&gt;af75f08161c4b7f63829c3fdcd86ed15181299a8</title>
<path fill="none" stroke="black" d="M253.89,-1223.7C253.89,-1215.98 253.89,-1206.71 253.89,-1198.11"/>
<polygon fill="black" stroke="black" points="257.39,-1198.1 253.89,-1188.1 250.39,-1198.1 257.39,-1198.1"/>
</g>
<!-- 11bdad33ca8a88c174ab27d3722a695418250b6c -->
<g id="node24" class="node">
<title>11bdad33ca8a88c174ab27d3722a695418250b6c</title>
<ellipse fill="none" stroke="black" cx="253.89" cy="-1098" rx="40.89" ry="18"/>
<text text-anchor="middle" x="253.89" y="-1094.3" font-family="Times,serif" font-size="14.00">11bdad3</text>
</g>
<!-- af75f08161c4b7f63829c3fdcd86ed15181299a8&#45;&gt;11bdad33ca8a88c174ab27d3722a695418250b6c -->
<g id="edge26" class="edge">
<title>af75f08161c4b7f63829c3fdcd86ed15181299a8-&gt;11bdad33ca8a88c174ab27d3722a695418250b6c</title>
<path fill="none" stroke="black" d="M253.89,-1151.7C253.89,-1143.98 253.89,-1134.71 253.89,-1126.11"/>
<polygon fill="black" stroke="black" points="257.39,-1126.1 253.89,-1116.1 250.39,-1126.1 257.39,-1126.1"/>
</g>
<!-- 77826a76be5615e97a70fb3399eb5e0ac8175c45 -->
<g id="node25" class="node">
<title>77826a76be5615e97a70fb3399eb5e0ac8175c45</title>
<ellipse fill="none" stroke="black" cx="219.89" cy="-1026" rx="40.89" ry="18"/>
<text text-anchor="middle" x="219.89" y="-1022.3" font-family="Times,serif" font-size="14.00">77826a7</text>
</g>
<!-- 11bdad33ca8a88c174ab27d3722a695418250b6c&#45;&gt;77826a76be5615e97a70fb3399eb5e0ac8175c45 -->
<g id="edge27" class="edge">
<title>11bdad33ca8a88c174ab27d3722a695418250b6c-&gt;77826a76be5615e97a70fb3399eb5e0ac8175c45</title>
<path fill="none" stroke="black" d="M245.66,-1080.05C241.69,-1071.89 236.84,-1061.91 232.43,-1052.82"/>
<polygon fill="black" stroke="black" points="235.56,-1051.25 228.04,-1043.79 229.26,-1054.31 235.56,-1051.25"/>
</g>
<!-- f678944d7be91e1fbbf4ba00b6db987b4da601ef -->
<g id="node26" class="node">
<title>f678944d7be91e1fbbf4ba00b6db987b4da601ef</title>
<ellipse fill="none" stroke="black" cx="253.89" cy="-954" rx="40.09" ry="18"/>
<text text-anchor="middle" x="253.89" y="-950.3" font-family="Times,serif" font-size="14.00">f678944</text>
</g>
<!-- 11bdad33ca8a88c174ab27d3722a695418250b6c&#45;&gt;f678944d7be91e1fbbf4ba00b6db987b4da601ef -->
<g id="edge28" class="edge">
<title>11bdad33ca8a88c174ab27d3722a695418250b6c-&gt;f678944d7be91e1fbbf4ba00b6db987b4da601ef</title>
<path fill="none" stroke="black" d="M260.37,-1080.1C263.96,-1069.84 268.06,-1056.36 269.89,-1044 272.22,-1028.17 272.22,-1023.83 269.89,-1008 268.59,-999.21 266.14,-989.86 263.55,-981.5"/>
<polygon fill="black" stroke="black" points="266.83,-980.29 260.37,-971.9 260.19,-982.49 266.83,-980.29"/>
</g>
<!-- 77826a76be5615e97a70fb3399eb5e0ac8175c45&#45;&gt;f678944d7be91e1fbbf4ba00b6db987b4da601ef -->
<g id="edge29" class="edge">
<title>77826a76be5615e97a70fb3399eb5e0ac8175c45-&gt;f678944d7be91e1fbbf4ba00b6db987b4da601ef</title>
<path fill="none" stroke="black" d="M228.12,-1008.05C232.08,-999.89 236.93,-989.91 241.34,-980.82"/>
<polygon fill="black" stroke="black" points="244.51,-982.31 245.73,-971.79 238.21,-979.25 244.51,-982.31"/>
</g>
<!-- caa078fc6c3323cfce0996173159bddb4018d460 -->
<g id="node27" class="node">
<title>caa078fc6c3323cfce0996173159bddb4018d460</title>
<ellipse fill="none" stroke="black" cx="253.89" cy="-882" rx="38.19" ry="18"/>
<text text-anchor="middle" x="253.89" y="-878.3" font-family="Times,serif" font-size="14.00">caa078f</text>
</g>
<!-- f678944d7be91e1fbbf4ba00b6db987b4da601ef&#45;&gt;caa078fc6c3323cfce0996173159bddb4018d460 -->
<g id="edge30" class="edge">
<title>f678944d7be91e1fbbf4ba00b6db987b4da601ef-&gt;caa078fc6c3323cfce0996173159bddb4018d460</title>
<path fill="none" stroke="black" d="M253.89,-935.7C253.89,-927.98 253.89,-918.71 253.89,-910.11"/>
<polygon fill="black" stroke="black" points="257.39,-910.1 253.89,-900.1 250.39,-910.1 257.39,-910.1"/>
</g>
<!-- 3d5bccdce2a952d4221492b3665d6162e6ddde40 -->
<g id="node28" class="node">
<title>3d5bccdce2a952d4221492b3665d6162e6ddde40</title>
<ellipse fill="none" stroke="black" cx="219.89" cy="-810" rx="40.09" ry="18"/>
<text text-anchor="middle" x="219.89" y="-806.3" font-family="Times,serif" font-size="14.00">3d5bccd</text>
</g>
<!-- caa078fc6c3323cfce0996173159bddb4018d460&#45;&gt;3d5bccdce2a952d4221492b3665d6162e6ddde40 -->
<g id="edge31" class="edge">
<title>caa078fc6c3323cfce0996173159bddb4018d460-&gt;3d5bccdce2a952d4221492b3665d6162e6ddde40</title>
<path fill="none" stroke="black" d="M245.66,-864.05C241.69,-855.89 236.84,-845.91 232.43,-836.82"/>
<polygon fill="black" stroke="black" points="235.56,-835.25 228.04,-827.79 229.26,-838.31 235.56,-835.25"/>
</g>
<!-- a80cfe801891bfe55e1904a28e18a908b439af35 -->
<g id="node30" class="node">
<title>a80cfe801891bfe55e1904a28e18a908b439af35</title>
<ellipse fill="none" stroke="black" cx="249.89" cy="-666" rx="38.19" ry="18"/>
<text text-anchor="middle" x="249.89" y="-662.3" font-family="Times,serif" font-size="14.00">a80cfe8</text>
</g>
<!-- caa078fc6c3323cfce0996173159bddb4018d460&#45;&gt;a80cfe801891bfe55e1904a28e18a908b439af35 -->
<g id="edge32" class="edge">
<title>caa078fc6c3323cfce0996173159bddb4018d460-&gt;a80cfe801891bfe55e1904a28e18a908b439af35</title>
<path fill="none" stroke="black" d="M259.97,-864.07C263.34,-853.79 267.18,-840.31 268.89,-828 275.42,-780.91 265.06,-725.87 257.26,-693.87"/>
<polygon fill="black" stroke="black" points="260.59,-692.78 254.74,-683.95 253.8,-694.5 260.59,-692.78"/>
</g>
<!-- 5d5a63a0e6b20d5ac07ee5fbb8e1642b50c6d65f -->
<g id="node29" class="node">
<title>5d5a63a0e6b20d5ac07ee5fbb8e1642b50c6d65f</title>
<ellipse fill="none" stroke="black" cx="181.89" cy="-738" rx="40.09" ry="18"/>
<text text-anchor="middle" x="181.89" y="-734.3" font-family="Times,serif" font-size="14.00">5d5a63a</text>
</g>
<!-- 3d5bccdce2a952d4221492b3665d6162e6ddde40&#45;&gt;5d5a63a0e6b20d5ac07ee5fbb8e1642b50c6d65f -->
<g id="edge33" class="edge">
<title>3d5bccdce2a952d4221492b3665d6162e6ddde40-&gt;5d5a63a0e6b20d5ac07ee5fbb8e1642b50c6d65f</title>
<path fill="none" stroke="black" d="M210.88,-792.41C206.4,-784.16 200.89,-774.01 195.88,-764.78"/>
<polygon fill="black" stroke="black" points="198.94,-763.07 191.09,-755.96 192.79,-766.41 198.94,-763.07"/>
</g>
<!-- 3d5bccdce2a952d4221492b3665d6162e6ddde40&#45;&gt;a80cfe801891bfe55e1904a28e18a908b439af35 -->
<g id="edge34" class="edge">
<title>3d5bccdce2a952d4221492b3665d6162e6ddde40-&gt;a80cfe801891bfe55e1904a28e18a908b439af35</title>
<path fill="none" stroke="black" d="M223.5,-791.87C228.64,-767.56 238.09,-722.82 244.18,-694.01"/>
<polygon fill="black" stroke="black" points="247.61,-694.7 246.25,-684.19 240.76,-693.25 247.61,-694.7"/>
</g>
<!-- 5d5a63a0e6b20d5ac07ee5fbb8e1642b50c6d65f&#45;&gt;a80cfe801891bfe55e1904a28e18a908b439af35 -->
<g id="edge35" class="edge">
<title>5d5a63a0e6b20d5ac07ee5fbb8e1642b50c6d65f-&gt;a80cfe801891bfe55e1904a28e18a908b439af35</title>
<path fill="none" stroke="black" d="M197.32,-721.12C206.18,-711.99 217.48,-700.36 227.33,-690.22"/>
<polygon fill="black" stroke="black" points="230.06,-692.43 234.52,-682.82 225.04,-687.56 230.06,-692.43"/>
</g>
<!-- 5db4eff420cbf0bcfb5cf3b414e0696f12a0b786 -->
<g id="node31" class="node">
<title>5db4eff420cbf0bcfb5cf3b414e0696f12a0b786</title>
<ellipse fill="none" stroke="black" cx="216.89" cy="-594" rx="38.19" ry="18"/>
<text text-anchor="middle" x="216.89" y="-590.3" font-family="Times,serif" font-size="14.00">5db4eff</text>
</g>
<!-- a80cfe801891bfe55e1904a28e18a908b439af35&#45;&gt;5db4eff420cbf0bcfb5cf3b414e0696f12a0b786 -->
<g id="edge37" class="edge">
<title>a80cfe801891bfe55e1904a28e18a908b439af35-&gt;5db4eff420cbf0bcfb5cf3b414e0696f12a0b786</title>
<path fill="none" stroke="black" d="M241.9,-648.05C238.09,-639.97 233.44,-630.12 229.2,-621.11"/>
<polygon fill="black" stroke="black" points="232.23,-619.34 224.8,-611.79 225.9,-622.33 232.23,-619.34"/>
</g>
<!-- bff8214bdaaa49e83b5494a07e21fc955e881d9a -->
<g id="node32" class="node">
<title>bff8214bdaaa49e83b5494a07e21fc955e881d9a</title>
<ellipse fill="none" stroke="black" cx="249.89" cy="-522" rx="38.19" ry="18"/>
<text text-anchor="middle" x="249.89" y="-518.3" font-family="Times,serif" font-size="14.00">bff8214</text>
</g>
<!-- a80cfe801891bfe55e1904a28e18a908b439af35&#45;&gt;bff8214bdaaa49e83b5494a07e21fc955e881d9a -->
<g id="edge36" class="edge">
<title>a80cfe801891bfe55e1904a28e18a908b439af35-&gt;bff8214bdaaa49e83b5494a07e21fc955e881d9a</title>
<path fill="none" stroke="black" d="M255.56,-648.04C258.71,-637.74 262.29,-624.27 263.89,-612 265.95,-596.13 265.95,-591.87 263.89,-576 262.75,-567.28 260.61,-557.95 258.34,-549.58"/>
<polygon fill="black" stroke="black" points="261.7,-548.6 255.56,-539.96 254.98,-550.54 261.7,-548.6"/>
</g>
<!-- 5db4eff420cbf0bcfb5cf3b414e0696f12a0b786&#45;&gt;bff8214bdaaa49e83b5494a07e21fc955e881d9a -->
<g id="edge38" class="edge">
<title>5db4eff420cbf0bcfb5cf3b414e0696f12a0b786-&gt;bff8214bdaaa49e83b5494a07e21fc955e881d9a</title>
<path fill="none" stroke="black" d="M224.87,-576.05C228.68,-567.97 233.33,-558.12 237.58,-549.11"/>
<polygon fill="black" stroke="black" points="240.87,-550.33 241.97,-539.79 234.54,-547.34 240.87,-550.33"/>
</g>
<!-- ed2d5891f6455a8412d9bce7fa7c9b09f958e4ca -->
<g id="node33" class="node">
<title>ed2d5891f6455a8412d9bce7fa7c9b09f958e4ca</title>
<ellipse fill="none" stroke="black" cx="215.89" cy="-450" rx="40.89" ry="18"/>
<text text-anchor="middle" x="215.89" y="-446.3" font-family="Times,serif" font-size="14.00">ed2d589</text>
</g>
<!-- bff8214bdaaa49e83b5494a07e21fc955e881d9a&#45;&gt;ed2d5891f6455a8412d9bce7fa7c9b09f958e4ca -->
<g id="edge40" class="edge">
<title>bff8214bdaaa49e83b5494a07e21fc955e881d9a-&gt;ed2d5891f6455a8412d9bce7fa7c9b09f958e4ca</title>
<path fill="none" stroke="black" d="M241.66,-504.05C237.69,-495.89 232.84,-485.91 228.43,-476.82"/>
<polygon fill="black" stroke="black" points="231.56,-475.25 224.04,-467.79 225.26,-478.31 231.56,-475.25"/>
</g>
<!-- e6024ba7cc8425a972d24d1855f7e1c5c175a7ea -->
<g id="node34" class="node">
<title>e6024ba7cc8425a972d24d1855f7e1c5c175a7ea</title>
<ellipse fill="none" stroke="black" cx="249.89" cy="-378" rx="40.09" ry="18"/>
<text text-anchor="middle" x="249.89" y="-374.3" font-family="Times,serif" font-size="14.00">e6024ba</text>
</g>
<!-- bff8214bdaaa49e83b5494a07e21fc955e881d9a&#45;&gt;e6024ba7cc8425a972d24d1855f7e1c5c175a7ea -->
<g id="edge39" class="edge">
<title>bff8214bdaaa49e83b5494a07e21fc955e881d9a-&gt;e6024ba7cc8425a972d24d1855f7e1c5c175a7ea</title>
<path fill="none" stroke="black" d="M256.37,-504.1C259.96,-493.84 264.06,-480.36 265.89,-468 268.22,-452.17 268.22,-447.83 265.89,-432 264.59,-423.21 262.14,-413.86 259.55,-405.5"/>
<polygon fill="black" stroke="black" points="262.83,-404.29 256.37,-395.9 256.19,-406.49 262.83,-404.29"/>
</g>
<!-- ed2d5891f6455a8412d9bce7fa7c9b09f958e4ca&#45;&gt;e6024ba7cc8425a972d24d1855f7e1c5c175a7ea -->
<g id="edge41" class="edge">
<title>ed2d5891f6455a8412d9bce7fa7c9b09f958e4ca-&gt;e6024ba7cc8425a972d24d1855f7e1c5c175a7ea</title>
<path fill="none" stroke="black" d="M224.12,-432.05C228.08,-423.89 232.93,-413.91 237.34,-404.82"/>
<polygon fill="black" stroke="black" points="240.51,-406.31 241.73,-395.79 234.21,-403.25 240.51,-406.31"/>
</g>
<!-- 3f4997860d1fd0a0e950e38d87a868b199a37a57 -->
<g id="node35" class="node">
<title>3f4997860d1fd0a0e950e38d87a868b199a37a57</title>
<ellipse fill="none" stroke="black" cx="215.89" cy="-306" rx="40.09" ry="18"/>
<text text-anchor="middle" x="215.89" y="-302.3" font-family="Times,serif" font-size="14.00">3f49978</text>
</g>
<!-- e6024ba7cc8425a972d24d1855f7e1c5c175a7ea&#45;&gt;3f4997860d1fd0a0e950e38d87a868b199a37a57 -->
<g id="edge42" class="edge">
<title>e6024ba7cc8425a972d24d1855f7e1c5c175a7ea-&gt;3f4997860d1fd0a0e950e38d87a868b199a37a57</title>
<path fill="none" stroke="black" d="M241.66,-360.05C237.69,-351.89 232.84,-341.91 228.43,-332.82"/>
<polygon fill="black" stroke="black" points="231.56,-331.25 224.04,-323.79 225.26,-334.31 231.56,-331.25"/>
</g>
<!-- 9b4590f3f4f4433006a21bf69a2ad8e7934122cf -->
<g id="node38" class="node">
<title>9b4590f3f4f4433006a21bf69a2ad8e7934122cf</title>
<ellipse fill="none" stroke="black" cx="226.89" cy="-90" rx="40.09" ry="18"/>
<text text-anchor="middle" x="226.89" y="-86.3" font-family="Times,serif" font-size="14.00">9b4590f</text>
</g>
<!-- e6024ba7cc8425a972d24d1855f7e1c5c175a7ea&#45;&gt;9b4590f3f4f4433006a21bf69a2ad8e7934122cf -->
<g id="edge43" class="edge">
<title>e6024ba7cc8425a972d24d1855f7e1c5c175a7ea-&gt;9b4590f3f4f4433006a21bf69a2ad8e7934122cf</title>
<path fill="none" stroke="black" d="M255.97,-360.07C259.34,-349.79 263.18,-336.31 264.89,-324 275.32,-248.83 250.78,-160.51 236.4,-117.39"/>
<polygon fill="black" stroke="black" points="239.71,-116.24 233.16,-107.91 233.09,-118.51 239.71,-116.24"/>
</g>
<!-- f24dddf4cd39edafea4dbd13e21d76007115e1b2 -->
<g id="node36" class="node">
<title>f24dddf4cd39edafea4dbd13e21d76007115e1b2</title>
<ellipse fill="none" stroke="black" cx="179.89" cy="-234" rx="38.19" ry="18"/>
<text text-anchor="middle" x="179.89" y="-230.3" font-family="Times,serif" font-size="14.00">f24dddf</text>
</g>
<!-- 3f4997860d1fd0a0e950e38d87a868b199a37a57&#45;&gt;f24dddf4cd39edafea4dbd13e21d76007115e1b2 -->
<g id="edge45" class="edge">
<title>3f4997860d1fd0a0e950e38d87a868b199a37a57-&gt;f24dddf4cd39edafea4dbd13e21d76007115e1b2</title>
<path fill="none" stroke="black" d="M207.17,-288.05C202.97,-279.89 197.84,-269.91 193.17,-260.82"/>
<polygon fill="black" stroke="black" points="196.21,-259.08 188.52,-251.79 189.98,-262.28 196.21,-259.08"/>
</g>
<!-- 3f4997860d1fd0a0e950e38d87a868b199a37a57&#45;&gt;9b4590f3f4f4433006a21bf69a2ad8e7934122cf -->
<g id="edge44" class="edge">
<title>3f4997860d1fd0a0e950e38d87a868b199a37a57-&gt;9b4590f3f4f4433006a21bf69a2ad8e7934122cf</title>
<path fill="none" stroke="black" d="M220.35,-287.95C222.82,-277.63 225.64,-264.15 226.89,-252 231.66,-205.49 230.2,-151.02 228.61,-118.85"/>
<polygon fill="black" stroke="black" points="232.08,-118.25 228.05,-108.45 225.09,-118.62 232.08,-118.25"/>
</g>
<!-- 64ac1b00694bfba5ed8a0f889ee9aaa8bfc05d04 -->
<g id="node37" class="node">
<title>64ac1b00694bfba5ed8a0f889ee9aaa8bfc05d04</title>
<ellipse fill="none" stroke="black" cx="139.89" cy="-162" rx="40.09" ry="18"/>
<text text-anchor="middle" x="139.89" y="-158.3" font-family="Times,serif" font-size="14.00">64ac1b0</text>
</g>
<!-- f24dddf4cd39edafea4dbd13e21d76007115e1b2&#45;&gt;64ac1b00694bfba5ed8a0f889ee9aaa8bfc05d04 -->
<g id="edge46" class="edge">
<title>f24dddf4cd39edafea4dbd13e21d76007115e1b2-&gt;64ac1b00694bfba5ed8a0f889ee9aaa8bfc05d04</title>
<path fill="none" stroke="black" d="M170.41,-216.41C165.69,-208.16 159.89,-198.01 154.62,-188.78"/>
<polygon fill="black" stroke="black" points="157.58,-186.9 149.58,-179.96 151.5,-190.38 157.58,-186.9"/>
</g>
<!-- f24dddf4cd39edafea4dbd13e21d76007115e1b2&#45;&gt;9b4590f3f4f4433006a21bf69a2ad8e7934122cf -->
<g id="edge47" class="edge">
<title>f24dddf4cd39edafea4dbd13e21d76007115e1b2-&gt;9b4590f3f4f4433006a21bf69a2ad8e7934122cf</title>
<path fill="none" stroke="black" d="M185.46,-216.15C193.47,-191.94 208.33,-147.05 217.91,-118.13"/>
<polygon fill="black" stroke="black" points="221.35,-118.86 221.17,-108.27 214.71,-116.66 221.35,-118.86"/>
</g>
<!-- 64ac1b00694bfba5ed8a0f889ee9aaa8bfc05d04&#45;&gt;9b4590f3f4f4433006a21bf69a2ad8e7934122cf -->
<g id="edge48" class="edge">
<title>64ac1b00694bfba5ed8a0f889ee9aaa8bfc05d04-&gt;9b4590f3f4f4433006a21bf69a2ad8e7934122cf</title>
<path fill="none" stroke="black" d="M158.76,-145.81C170.85,-136.09 186.71,-123.32 200.09,-112.56"/>
<polygon fill="black" stroke="black" points="202.45,-115.16 208.04,-106.16 198.06,-109.7 202.45,-115.16"/>
</g>
<!-- 9b4590f3f4f4433006a21bf69a2ad8e7934122cf&#45;&gt;a72d09b847d37208ca295c152cdf640ef2488500 -->
<g id="edge49" class="edge">
<title>9b4590f3f4f4433006a21bf69a2ad8e7934122cf-&gt;a72d09b847d37208ca295c152cdf640ef2488500</title>
<path fill="none" stroke="black" d="M226.89,-71.7C226.89,-63.98 226.89,-54.71 226.89,-46.11"/>
<polygon fill="black" stroke="black" points="230.39,-46.1 226.89,-36.1 223.39,-46.1 230.39,-46.1"/>
</g>
</g>
</svg>
